<!--?xml version="1.0" standalone="no"?-->
              <svg id="sw-js-blob-svg" viewBox="0 0 100 100" xmlns="http://www.w3.org/2000/svg" version="1.1">
                    <defs> 
                        <linearGradient id="sw-gradient" x1="0" x2="1" y1="1" y2="0">
                            <stop id="stop1" stop-color="rgba(248, 117, 55, 1)" offset="0%"></stop>
                            <stop id="stop2" stop-color="rgba(210.369, 251, 31, 1)" offset="100%"></stop>
                        </linearGradient>
                    </defs>
                <path fill="url(#sw-gradient)" d="M16.3,-15.5C23.1,-13.7,32.1,-10.5,32.8,-5.9C33.4,-1.4,25.7,4.5,19.9,8.5C14,12.4,10,14.4,4.8,18.7C-0.4,23,-6.8,29.7,-11.7,29.2C-16.6,28.7,-20,21.1,-24.5,13.9C-29.1,6.6,-34.8,-0.3,-34.1,-6.3C-33.3,-12.3,-26.1,-17.4,-19.4,-19.2C-12.6,-21,-6.3,-19.5,-0.8,-18.6C4.7,-17.6,9.4,-17.2,16.3,-15.5Z" width="100%" height="100%" transform="translate(50 50)" stroke-width="0" style="transition: all 0.3s ease 0s;" stroke="url(#sw-gradient)"></path>
              </svg>